PathFileType	4	(X/Y/Z)	18_2_rein_99_p1_0-185.trc
DataRate	CameraRate	NumFrames	NumMarkers	Units	OrigDataRate	OrigDataStartFrame	OrigNumFrames
60.0	60.0	6	27	m	60.0	46	186
Frame#	Time	RHip			RKnee			RAnkle			RBigToe			RSmallToe			RHeel			LHip			LKnee			LAnkle			LBigToe			LSmallToe			LHeel			Neck			Head			Nose			RShoulder			RElbow			RWrist			RThumb			RIndex			RPinky			LShoulder			LElbow			LWrist			LThumb			LIndex			LPinky			
		X1	Y1	Z1	X2	Y2	Z2	X3	Y3	Z3	X4	Y4	Z4	X5	Y5	Z5	X6	Y6	Z6	X7	Y7	Z7	X8	Y8	Z8	X9	Y9	Z9	X10	Y10	Z10	X11	Y11	Z11	X12	Y12	Z12	X13	Y13	Z13	X14	Y14	Z14	X15	Y15	Z15	X16	Y16	Z16	X17	Y17	Z17	X18	Y18	Z18	X19	Y19	Z19	X20	Y20	Z20	X21	Y21	Z21	X22	Y22	Z22	X23	Y23	Z23	X24	Y24	Z24	X25	Y25	Z25	X26	Y26	Z26	X27	Y27	Z27	
46	0.7666666666666667	0.28228044130883634	0.3887007059304911	1.1643922647799234	0.26443520387480657	0.48652891991254354	1.5897969489503536	0.2381522042958386	0.6020067589417489	2.0173411849117495	0.20747667688258484	0.3723813180086627	2.0292423956151096	0.2638965218692706	0.4175649368845126	2.0396677967061256	0.21612627148160596	0.681963205177434	2.0799768595815507	0.09288729004451242	0.349697125450887	1.1496301819110686	0.08081535984687026	0.44307986057947263	1.5705841748892495	0.04884023445558319	0.5736260341196638	2.0044261755810915	0.06116233254407744	0.393221622052471	2.037256059465743	0.01628011321195384	0.4221544529402146	2.0338533406064143	0.06506227897902205	0.6551779975393814	2.0713272826109317	0.19902438405442827	0.28534525253799	0.5922534998636034	0.1959521681033198	0.22987544644850907	0.3571955907402949	0.18897228383511527	0.1747276819950872	0.4907636702331478	0.32701153463594534	0.3034519385426323	0.6911788358511375	0.35928432359316737	0.20379194802166392	0.8992201743632191	0.24910833027343127	0.0008283292644758133	0.9829289769460413	0.16484233536677292	-0.08615723196847973	0.9771443896303055	0.15713558962454752	-0.10786223331328926	1.0135003976031003	0.18000190178333692	-0.0840732281531815	1.0319071328299938	0.04072555110711547	0.3336766566490106	0.6892552254321714	0.022739494930787876	0.2025584901741525	0.8784330579924082	0.10411738935392945	-0.04417879890371436	0.9678781394964009	0.1660077301303672	-0.13359118512535076	0.9687709703723063	0.16760968415238997	-0.131305055846216	1.0000193810205726	0.15689559268558642	-0.10157414741619604	1.0304657489814275
47	0.7833333333333333	0.28228247480728047	0.38856903503244467	1.1642836095507743	0.26453894208370465	0.4866277030998143	1.5897716360239003	0.24254272184831963	0.5853841273172917	2.0095393163786786	0.20768885228207426	0.37288246924937846	2.0296924118103084	0.2640343310302377	0.417997291867213	2.0399751252914586	0.21730603631021894	0.6803980308251852	2.074687643729766	0.0886797906638819	0.348865393949279	1.1493360816759892	0.08078816799627306	0.44320379367391916	1.5705554444011858	0.04967301793821732	0.5768274469388266	2.0101338871224796	0.06113457428248948	0.3931593668018885	2.037352280736515	0.011140126599410853	0.4364827776714891	2.041015691641689	0.06514777379402574	0.6552905207432663	2.0712347156938478	0.19902090900411443	0.2853365061903512	0.5921435157396988	0.1959726834085184	0.2298582040295755	0.3571904767045689	0.18878876450775872	0.175688708902851	0.4874796775400042	0.3271167126487795	0.3033529934674224	0.6912030193216993	0.35924208451343387	0.20386276262559416	0.8993562384224393	0.24897721167914172	0.0011106538053295297	0.9831419786745142	0.16726772328195158	-0.0756504788239178	0.9761753285601638	0.1537442098159987	-0.09606010596335836	1.019442381376573	0.17685152040174837	-0.07563497430338714	1.0338880191261077	0.04074009249020916	0.3336808472206252	0.6892343341501166	0.022816639091229295	0.202416035713289	0.8784748992800835	0.10410447063714898	-0.044105061751423744	0.9679562785616844	0.1628949446870676	-0.12416315289866241	0.9704468907293677	0.16757349862818066	-0.13105705597934322	1.0003302164891246	0.16267555531307892	-0.1025621219287179	1.030116853174719
48	0.8	0.286365125043845	0.3744991625333803	1.1615596908695422	0.26063726785701896	0.4734730620076354	1.5854811426421136	0.23798506378545445	0.6015910218715984	2.017511630540008	0.20875486216328587	0.3454217131815042	2.016631825880195	0.2640237145685302	0.41768000509916403	2.040108250715906	0.21604428843979095	0.6815953887816695	2.0806904383142517	0.09295697588291875	0.3497345935366101	1.1497055145134547	0.08082922554518845	0.44321838473674935	1.5707088831377096	0.049688651153326546	0.5771341650346983	2.010175118923644	0.060968770270002116	0.3926071357712529	2.037394382262853	0.011100959225809958	0.43667098302144086	2.041298184015844	0.07018598284699973	0.6596444440906489	2.0736028232656127	0.19904548351698603	0.28537643450425515	0.5921741462790863	0.1959261547881732	0.2299094125748431	0.35717955304561516	0.19206350134867245	0.18679824955610566	0.48708318230608033	0.32691021190255154	0.3037736758801655	0.6911668364551156	0.3599088998044922	0.2059720265815381	0.9034868335322406	0.24917085898494234	0.0009891232921504234	0.9830324711771095	0.16706555243664453	-0.07975028584501828	0.9819141598247328	0.15727670366704694	-0.10798564032274809	1.0138823509789403	0.18080420252413146	-0.08438846247727794	1.0388178285981504	0.04515853047425537	0.3218175655173222	0.6886111344958671	0.02297851261314849	0.2011942815989379	0.8817732988062893	0.10178055540451927	-0.052940014732597324	0.966683438986487	0.1618641222728048	-0.12381547515454275	0.977857892223027	0.17104456334790186	-0.13085853378859577	1.0069954117262299	0.15925226004995388	-0.09264098991461181	1.0322261699734157
49	0.8166666666666667	0.28629195324871604	0.3743538443092825	1.161557615175911	0.25967230201558217	0.47057348896414686	1.580664121702607	0.24225741017726077	0.5846473765804747	2.0097007129954987	0.2090035390259482	0.34592267636575463	2.0170975941246505	0.2642970812181909	0.4178575136756618	2.040382503654885	0.21125634383089573	0.679752580095298	2.0802749663293194	0.09189443796787322	0.34815109994245746	1.148444731817092	0.08078310176805335	0.4432131391115207	1.5704644715208909	0.04894135090759257	0.5737769984167089	2.004023995627696	0.060904238382111335	0.3929479388966512	2.0375939211181064	0.016332813954330384	0.42200353693099363	2.0342235214039515	0.07025306866497412	0.6591514404978551	2.0732790565627393	0.19903052832514373	0.28539690560543396	0.5922131215939473	0.19605081387999637	0.23181277979908754	0.3601235911052377	0.19208746997116882	0.18690849134257465	0.48707866132313216	0.32691322322281485	0.3038033690975543	0.6911667007846746	0.3599470333519949	0.2060001873917817	0.9035952023423026	0.24963301803325016	0.0028143659342446696	0.9868136757765126	0.17072821086188733	-0.08540026505332356	0.9919620589718613	0.16393954199566474	-0.10699572729649895	1.021247223287348	0.1828745311583832	-0.07450563152476264	1.0407126748711295	0.04072470190021737	0.3336192241230943	0.6892381892060179	0.022973987898828076	0.2005691681840934	0.8819138522038429	0.10188937481161629	-0.05322978813723707	0.9667483776371792	0.16539759239007928	-0.12082483479742902	0.9856930725220922	0.1713443482321759	-0.13220458024490828	1.0103445848108983	0.1595015728329621	-0.09422572406827145	1.035391322555776
50	0.8333333333333334	0.2856964329961276	0.3754421032046789	1.165469925439866	0.2606017412829681	0.47342985483619	1.58551710660592	0.23806732263481722	0.6017938563031988	2.017373584441731	0.20751227236239875	0.3724060347158318	2.0294915085988525	0.2638384170683523	0.41740603167987006	2.039748299267303	0.2160636806847672	0.6820484456988848	2.0800342831498595	0.09232091303267768	0.35060182019826835	1.1533477825477751	0.08077666941291396	0.4432038746992078	1.5707555352061262	0.04896469348855027	0.5738579008671411	2.0041426312284036	0.06090578725814918	0.3934343815639684	2.037624660203742	0.011136461525707523	0.4366157644823934	2.0411668422352602	0.07023967718953207	0.659452808593791	2.0732280642064036	0.1990485936596375	0.2853754739230541	0.5920937278026784	0.19606578791782303	0.2317704924166742	0.36015056297421616	0.19207634264094509	0.18700749058402708	0.4870346085434995	0.32700053492923387	0.30388545208507334	0.691198170003388	0.35992962679735035	0.20611015302545013	0.9037433817749098	0.24987257737297885	0.0020892670566677557	0.9865615910560397	0.16779095001937225	-0.07557367556872334	1.0016221855246068	0.16044669065690104	-0.09823346420275206	1.0234581329103414	0.18469701046684603	-0.08467087305377528	1.0391414589542063	0.04510557497553687	0.3217567774508393	0.6886654370079283	0.026864425293690826	0.20227233070898368	0.8821053374970755	0.10202506374475567	-0.05413987304277063	0.9701103697128328	0.1615590273282147	-0.12000375526972643	0.991910334343643	0.1711479283941712	-0.1315273361765074	1.0107014200082243	0.1563273345130443	-0.08229066511600844	1.0409271097982826
51	0.85	0.2856845549428603	0.3754406607952729	1.165420912811096	0.26054201584559583	0.47341738998176075	1.5855090027937198	0.23793347283316713	0.6015145672921866	2.017451611712999	0.20881052351088175	0.34614795234459855	2.0170849499467174	0.26412937032093325	0.41836136979009547	2.0404449828931184	0.21597685568960934	0.6814006034006287	2.080829234850393	0.09294447851181883	0.34982082995354064	1.1496715264170831	0.08075802976832162	0.44323055892059415	1.5706023312320903	0.048942017695437386	0.5739467401189348	2.0041529905530653	0.06147065430985805	0.3963109164333614	2.043121280167211	0.011136830815247805	0.4366283419675801	2.0414722799304656	0.07020353720872358	0.6595153854284086	2.073463260530186	0.19906828501382917	0.28531294519453965	0.5921158789866948	0.19608439882310735	0.23183669579465546	0.3601611746960393	0.1920857482473626	0.18695059780182655	0.4870237344701616	0.3315365219854644	0.3044514028034796	0.6912341689053376	0.3600405361178062	0.205256659333139	0.9071849672967622	0.24998529807482112	0.0021771026374059013	0.9867342209330674	0.16791188251097994	-0.07571404256565466	1.002393747594341	0.16059147245157612	-0.09818128736406388	1.0238071349056785	0.184697803277923	-0.08543438737552358	1.0394221595620046	0.04306498500844521	0.34654266168960784	0.6896517400698299	0.026925109335048776	0.20228447965853708	0.8822594596586528	0.10197921458411625	-0.05420651620826883	0.9703863665919998	0.16541221671358042	-0.1180339983454513	0.9919700985962208	0.16777384584134566	-0.1220633811418613	1.0189152049224692	0.15665053271143323	-0.08087033248952359	1.0413953487170373
